
        <svg xmlns="http://www.w3.org/2000/svg" xmlns:xlink="http://www.w3.org/1999/xlink" version="1.1" width="3148.8833746898263" 
        height="774.1935483870967" viewBox="0 0 3148.8833746898263 774.1935483870967">
			<rect fill="#FFFFFF" width="3148.8833746898263" height="774.1935483870967"/>
			<g transform="scale(7.444168734491315) translate(10, 10)">
				<defs id="SvgjsDefs11344"></defs><g id="SvgjsG11345" featureKey="rootContainer" transform="matrix(1,0,0,1,0,0)" fill="#6e8a5b">    <path xmlns="http://www.w3.org/2000/svg" fill-rule="nonzero" d="             M0,0             H403             V84             H0,0             z             M4,4             v76             h395             v-76             z     "></path></g><g id="SvgjsG11346" featureKey="JjiT9w-0" transform="matrix(0.83413158714185,0,0,0.83413158714185,16.294657427509144,5.040512927152138)" fill="#6e8a5b"><path xmlns="http://www.w3.org/2000/svg" d="m 35.978884,10.741135 c 0.49616,1.98221 -0.55017,-1.0092398 -1.23252,0.71785 l 0.41987,0.25733 c -2.26061,2.46704 -5.56265,0.20425 -7.47639,2.23818 -1.80212,0.0143 -2.02847,0.39941 -2.91538,1.84201 -2.38121,-1.03864 -3.19447,2.94552 -4.98087,3.26076 -1.49215,-0.38928 -4.84335,-2.01183 -5.54296,0.60949 0.40715,1.92673 -2.29955,0.50062 -1.21559,1.42214 -1.98999,-0.15151 1.21539,1.36802 -0.921,0.63657 1.91974,1.06763 0.96083,3.21919 1.97745,4.25287 2.5486,0.60195 2.7629,1.34894 5.34995,1.00566 0.49894,0.98156 3.94233,1.78342 4.76416,2.73593 -0.95902,3.80025 -2.55178,0.72861 -4.5847,-0.27427 0.14506,0.5225 -2.44004,-1.62965 -2.51922,-0.32168 -0.3942,2.8797 -5.05804,3.28214 -6.27434,3.92443 1.06103,0.44388 -0.45477,1.37459 -0.52822,1.19527 -0.4819402,0.20389 -2.2551002,0.64864 -1.7776802,1.25961 0.15564,0.66003 -3.47493,0.95502 -1.96052,2.33976 -2.61207,0.82602 -0.51134,6.0746 1.61176,3.64338 4.3232702,0.73757 5.9014002,-0.49268 10.0802502,-1.0666 4.72303,-0.24294 -3.33303,4.9328 -3.48424,2.6919 -1.51664,0.26439 -1.72678,0.33121 -1.80137,1.15465 -3.1048902,-0.29477 -5.7681602,0.94091 -8.9662502,-0.5587 -0.0544,0.1069 -5.29372,2.10198 -2.15352,4.25287 -1.17462999,-1.23065 0.5909,-0.45763 1.05644,-0.18962 -1.92123999,2.87755 4.45264,6.13765 5.26869,4.46958 2.1006102,0.73792 3.8985902,0.0821 4.4018602,2.13998 -1.84268,1.13215 -3.9322902,0.69688 -3.8330102,1.09031 -0.29085,1.62414 -5.13155,0.90883 -5.57343,2.57339 -1.27849,0.45764 2.48727,3.29198 2.20093,1.71334 1.31709,1.15127 0.51443,-0.54171 1.54065,0.0643 3.1693402,-0.93903 2.79459,2.79537 5.1671102,1.88602 1.85737,1.93758 -0.70021,0.56617 -1.75059,2.61403 1.24074,-1.24463 0.12694,0.93221 1.29347,1.00227 -1.8729102,0.59908 -1.09307,2.81228 0.79234,3.3725 0.24272,-1.41801 2.21577,-0.16984 3.96844,-0.77879 1.19112,-1.24024 2.78535,-1.75861 4.7811,-1.84878 0.5736,0.62237 4.39755,-0.19525 4.34768,-0.88037 2.43122,-1.50854 4.58751,-1.39679 6.98541,-1.76075 3.59852,-0.60328 1.92976,3.06188 2.17723,5.43799 -0.015,2.81073 0.5853,6.61644 -2.96279,7.5712 -4.61335,1.15132 1.85409,0.71551 3.40636,1.78444 3.43274,0.58652 6.3464,-2.05192 8.9053,-1.26638 1.72139,-1.46024 -4.27606,-0.41754 -4.52714,-2.77655 -0.2319,-2.6016 -1.51132,-7.75597 0.73815,-8.94932 0.62327,2.21995 2.85212,-0.89822 2.17723,1.42214 -1.72427,2.45362 1.97078,-0.54947 1.65239,1.31378 2.1553,0.52014 4.51364,1.38644 6.82965,0.61626 0.97914,-1.44267 4.17662,-0.47822 3.11855,-2.0621 1.98707,-2.90797 6.44327,2.40366 8.94932,-0.38939 2.03196,-0.24404 6.71754,-0.53216 3.86009,-3.6637 1.85627,-1.22051 -3.65096,-0.48579 -1.22914,-1.21221 2.50853,-2.51018 4.73527,2.63069 6.64004,0.27089 1.7296,-1.01663 3.56574,0.21849 5.60052,-1.04968 3.00608,-1.33701 0.19913,-5.2586 0.47404,-6.06779 -2.10033,0.20795 0.99287,-1.48035 -1.00227,-0.4605 -1.08797,-3.17115 -5.38516,0.58015 -6.5012,-0.69753 2.05578,-0.50247 2.98434,-2.30527 0.0135,-2.76978 2.77803,-0.75985 -0.36534,-2.99155 -1.82169,-1.80138 -3.4519,0.15132 1.04645,0.11201 0.19639,-1.55419 -2.17249,-1.09184 0.46801,-1.59009 2.05194,-0.99889 3.46386,0.90569 6.63393,-1.9007 4.73031,-4.64904 0.79194,-0.79204 -1.38014,-1.60725 -0.69414,-2.48197 0.74356,-0.8876 -3.1577,-4.26752 -6.12536,-4.92331 -3.04775,-2.1219 -2.3513,4.53961 -3.6874,1.36119 -1.95166,1.02213 -0.62165,-0.28725 -1.11739,-1.07337 1.26253,-3.02597 -9.03224,-1.65402 -3.86687,-3.64 0.0226,-2.85107 3.05272,-2.77464 4.22579,-3.75174 1.70886,0.95782 1.81951,0.25135 3.0068,0.4368 -0.27377,-0.16661 2.00439,-2.39831 0.31152,-2.02147 0.0649,0.0172 -6.13849,-3.34644 -2.67159,-3.60614 2.9885,0.2512 0.36725,-2.40369 1.3578,-2.9357 -1.99133,-3.09581 -4.19357,2.60542 -6.41994,0.0271 2.21463,-2.95275 -2.59925,0.48965 -4.06325,-0.29797 0.37856,2.01339 -2.94112,1.91188 -2.07226,3.15579 -1.87052,-1.30468 -5.63411,0.79022 -5.21451,-2.2551 0.86696,0.19688 5.29148,0.54118 4.68629,-1.68625 -0.27509,-2.14163 -1.87843,-2.08718 -4.37477,-2.11289 -0.2452,1.60711 -5.20366,-1.32709 -0.64335,-1.5305 1.43582,-1.5886 -2.95705,-1.71385 -4.34091,-2.47858 0.88043,2.45346 -4.81145,2.02114 -2.15353,1.02936 -0.63428,-2.00386 -2.2364,-1.42723 -4.45603,-0.86683 -1.13433,-1.61456 -0.73259,0.59628 -1.67948,-1.08354 z m 31.73401,16.66273 c 0.0152,0.009 0.0358,0.0144 0.0677,0.0102 -0.0238,-0.004 -0.0448,-0.007 -0.0677,-0.0102 z m -57.41377,6.83981 c 0.13122,-0.0555 0.17338,-0.0938 0.0406,-0.11174 -0.0383,0.0549 -0.0493,0.0905 -0.0406,0.11174 z m 17.174415,27.002777 c 0.35628,-1.67912 5.598092,-0.88762 4.593632,-0.913787 -0.664859,-0.01732 -4.524904,1.517395 -4.593632,0.913787 z m 15.402715,0.268433 c 2.11999,-0.003 0.71358,2.82556 -1.63884,2.07903 -3.32224,0.0944 0.32647,-2.19871 0.86344,-1.98084 0.29757,-0.0681 0.5561,-0.0979 0.7754,-0.0982 z" fill="#6e8a5b" stroke="#6e8a5b" stroke-width="0.01269767"></path></g><g id="SvgjsG11347" featureKey="nameFeature-0" transform="matrix(1.858488627522575,0,0,1.858488627522575,100.29588280369252,17.69680727088057)" fill="#6e8a5b"><path d="M4.38 6.92 c0.02 -0.06 0.06 -0.12 0.14 -0.12 l2.48 0 c0.08 0 0.12 0.06 0.14 0.12 l3.46 12.86 c0.02 0.12 -0.06 0.22 -0.18 0.22 l-2.28 0 c-0.06 0 -0.12 -0.04 -0.14 -0.12 l-0.78 -2.8 l-2.92 0 l-0.76 2.8 c-0.02 0.08 -0.06 0.12 -0.14 0.12 l-2.3 0 c-0.12 0 -0.2 -0.1 -0.18 -0.22 z M4.94 14.6 l1.66 0 l-0.86 -3.02 z M8.02 15.78 l0.92 3 c0.04 0.12 0.26 0.1 0.2 -0.06 l-3.2 -10.64 c-0.06 -0.26 -0.4 -0.28 -0.46 0 l-3.1 10.64 c-0.06 0.14 0.16 0.2 0.22 0.08 l0.88 -3.02 l4.54 0 z M3.54 15.52 l2.18 -7.36 l2.22 7.36 l-4.4 0 z M20.9 14.78 c-0.28 0.58 -0.68 1.02 -1.24 1.28 l1.68 3.7 c0.06 0.12 -0.02 0.24 -0.14 0.24 l-2.46 0 c-0.08 0 -0.12 -0.04 -0.14 -0.1 l-1.56 -3.4 l-1.02 0 l0 3.32 c0 0.1 -0.08 0.18 -0.18 0.18 l-2.3 0 c-0.08 0 -0.14 -0.08 -0.14 -0.18 l0 -12.84 c0 -0.1 0.06 -0.18 0.14 -0.18 l4.16 0 c2.22 0 3.56 1.26 3.56 3.6 l0 2.52 c0 0.7 -0.12 1.36 -0.36 1.86 z M18.64 12.3 l0 -1.3 c0 -1.4 -0.52 -1.54 -2.04 -1.54 l-0.58 0 l0 4.42 l0.58 0 c1.26 0 2 -0.02 2.04 -1.58 z M14.86 18.78 l0 -3.42 l2.88 0 l1.68 3.46 c0.04 0.1 0.28 0.06 0.22 -0.12 l-1.68 -3.4 c1.56 -0.22 2.1 -1.04 2.1 -2.52 l0 -2.5 c0 -2.2 -2 -2.38 -2.62 -2.38 l-2.7 0 c-0.04 0 -0.12 0.06 -0.12 0.12 l0 10.76 c0 0.14 0.24 0.14 0.24 0 z M19.82 10.28 l0 2.5 c0 2.04 -1.3 2.32 -2.56 2.32 l-2.4 0 l0 -6.94 l2.58 0 c2.16 0 2.38 1.46 2.38 2.12 z M32.34 10.22 c0 0.78 -0.12 1.46 -0.4 1.96 c0.76 0.72 1.08 1.88 1.08 3.5 c0 1.72 -0.36 2.94 -1.18 3.58 c-0.78 0.62 -1.88 0.74 -2.98 0.74 l-3.9 0 c-0.1 0 -0.16 -0.08 -0.16 -0.18 l0 -12.84 c0 -0.1 0.06 -0.18 0.16 -0.18 l3.2 0 c1.08 0 2.2 0.08 2.96 0.58 c0.94 0.6 1.22 1.68 1.22 2.84 z M27.44 9.42 l0 1.8 l1.22 0 c0.64 0 0.98 -0.2 0.98 -0.9 s-0.52 -0.9 -1.4 -0.9 l-0.8 0 z M28.2 17.38 c1.1 0 2.14 -0.48 2.14 -1.76 c0 -0.96 -0.68 -1.72 -1.7 -1.72 l-1.2 0 l0 3.48 l0.76 0 z M25.96 8.06 l0 10.66 c0 0.1 0.08 0.14 0.16 0.14 l2.68 0 c1.94 0 3.1 -0.98 3.1 -3.08 c0 -1.5 -0.34 -3.06 -1.9 -3.5 c0.92 -0.3 1.16 -1.22 1.16 -2.2 c0 -1.6 -0.9 -2.18 -2.52 -2.18 l-2.52 0 c-0.12 0 -0.16 0.06 -0.16 0.16 z M28.5 18.62 l-2.28 0 l0 -6.16 l2.82 0 c2.06 0 2.58 1.34 2.58 3.32 c0 2.02 -1.1 2.92 -3.12 2.84 z M30.92 10.08 c0 1.62 -0.68 2.12 -2.32 2.12 l-2.38 0 l0 -4.04 l2.42 0 c1.18 0 2.28 0.22 2.28 1.92 z M40.64 6.62 c1.72 0 2.92 0.38 3.68 1.2 c0.6 0.66 0.88 1.6 0.88 2.94 l0 5.26 c0 1.38 -0.28 2.34 -0.88 2.98 c-0.78 0.8 -1.96 1.2 -3.68 1.2 c-1.78 0 -2.94 -0.4 -3.7 -1.2 c-0.58 -0.64 -0.9 -1.6 -0.9 -2.98 l0 -5.26 c0 -1.34 0.32 -2.28 0.9 -2.96 c0.78 -0.8 1.96 -1.18 3.7 -1.18 z M42.54 15.42 l0 -4 c0 -1.76 -0.94 -2.12 -1.8 -2.12 l-0.24 0 c-1.28 0 -1.78 0.82 -1.78 2.12 l0 4 c0 1.76 0.94 2.14 1.78 2.14 l0.24 0 c1.28 0 1.78 -0.86 1.8 -2.14 z M37.3 10.9 l0 4.96 c0 0.94 0.24 1.72 0.8 2.3 c0.52 0.52 1.32 0.8 2.3 0.8 l0.52 0 c1.88 0 3.1 -1.2 3.1 -3.1 l0 -4.96 c0 -2.04 -1.08 -3.14 -3.1 -3.14 l-0.52 0 c-2.04 0 -3.1 1.1 -3.1 3.14 z M40.92 18.7 l-0.52 0 c-0.94 0 -1.64 -0.24 -2.14 -0.74 s-0.76 -1.2 -0.76 -2.1 l0 -4.96 c0 -1.9 1.02 -2.9 2.9 -2.9 l0.52 0 c1.9 0 2.84 0.98 2.84 2.9 l0 4.96 c0 0.84 -0.26 1.6 -0.8 2.12 c-0.52 0.44 -1.22 0.72 -2.04 0.72 z M56.2 14.78 c-0.28 0.58 -0.68 1.02 -1.24 1.28 l1.68 3.7 c0.06 0.12 -0.02 0.24 -0.14 0.24 l-2.46 0 c-0.08 0 -0.12 -0.04 -0.14 -0.1 l-1.56 -3.4 l-1.02 0 l0 3.32 c0 0.1 -0.08 0.18 -0.18 0.18 l-2.3 0 c-0.08 0 -0.14 -0.08 -0.14 -0.18 l0 -12.84 c0 -0.1 0.06 -0.18 0.14 -0.18 l4.16 0 c2.22 0 3.56 1.26 3.56 3.6 l0 2.52 c0 0.7 -0.12 1.36 -0.36 1.86 z M53.94 12.3 l0 -1.3 c0 -1.4 -0.52 -1.54 -2.04 -1.54 l-0.58 0 l0 4.42 l0.58 0 c1.26 0 2 -0.02 2.04 -1.58 z M50.16 18.78 l0 -3.42 l2.88 0 l1.68 3.46 c0.04 0.1 0.28 0.06 0.22 -0.12 l-1.68 -3.4 c1.56 -0.22 2.1 -1.04 2.1 -2.52 l0 -2.5 c0 -2.2 -2 -2.38 -2.62 -2.38 l-2.7 0 c-0.04 0 -0.12 0.06 -0.12 0.12 l0 10.76 c0 0.14 0.24 0.14 0.24 0 z M55.12 10.28 l0 2.5 c0 2.04 -1.3 2.32 -2.56 2.32 l-2.4 0 l0 -6.94 l2.58 0 c2.16 0 2.38 1.46 2.38 2.12 z M60.26 20 c-0.1 0 -0.16 -0.08 -0.16 -0.18 l0 -12.84 c0 -0.1 0.06 -0.18 0.16 -0.18 l2.28 0 c0.1 0 0.18 0.08 0.18 0.18 l0 12.84 c0 0.1 -0.08 0.18 -0.18 0.18 l-2.28 0 z M61.3 8 l0 10.78 c0 0.18 0.22 0.18 0.22 0 l0 -10.78 c0 -0.14 -0.22 -0.14 -0.22 0 z M70.9 11.9 c1.52 0.72 3.5 1.86 3.5 3.92 c0 0.6 -0.1 1.76 -0.76 2.74 c-0.74 1.1 -1.9 1.64 -3.5 1.64 c-1.7 0 -3.68 -0.82 -4.3 -2.68 c-0.02 -0.06 0 -0.12 0.06 -0.16 l1.84 -1.58 c0.08 -0.06 0.2 -0.06 0.26 0.04 c0.04 0.1 0.12 0.26 0.22 0.46 c0.3 0.62 1.02 1.24 1.82 1.24 c0.62 0 1.46 -0.34 1.46 -1.3 c0 -0.92 -1.26 -1.44 -2.04 -1.74 c-0.9 -0.36 -1.82 -0.82 -2.6 -1.5 c-0.82 -0.76 -1.22 -1.6 -1.22 -2.6 c0 -2.5 2.3 -3.76 4.48 -3.76 c1.72 0 3 0.9 3.84 2.68 c0.04 0.08 0 0.18 -0.06 0.22 l-1.78 1.24 c-0.08 0.04 -0.12 0.04 -0.2 -0.06 c-0.68 -0.98 -1.28 -1.44 -2.08 -1.44 c-0.42 0 -1.4 0.16 -1.4 0.9 c0 0.9 1.66 1.36 2.46 1.74 z M67.26 17.42 c0.5 1 1.88 1.58 3 1.58 c1.46 0 2.64 -1 2.8 -2.52 c0.2 -1.86 -1.26 -2.66 -2.7 -3.38 l-0.64 -0.28 c-1.48 -0.66 -2.56 -1.16 -2.56 -2.54 c0 -1.52 1.4 -2.22 2.78 -2.22 c1.26 0 1.92 0.74 2.26 1.2 c0.12 0.16 0.32 0.02 0.2 -0.14 c-0.34 -0.42 -1.06 -1.3 -2.46 -1.3 c-1.58 0 -3.02 0.78 -3.02 2.46 c0 1.5 1.2 2.08 2.72 2.78 l0.62 0.3 c1.98 0.94 2.7 1.82 2.54 3.1 c-0.3 2.04 -1.86 2.3 -2.54 2.3 c-1.5 0 -2.5 -0.9 -2.8 -1.46 c-0.1 -0.1 -0.24 0 -0.2 0.12 z M79.46 9.3 l-2.84 0 c-0.1 0 -0.18 -0.08 -0.18 -0.18 l0 -2.14 c0 -0.1 0.08 -0.18 0.18 -0.18 l8.34 0 c0.1 0 0.18 0.08 0.18 0.18 l0 2.14 c0 0.1 -0.08 0.18 -0.18 0.18 l-2.84 0 l0 10.52 c0 0.1 -0.08 0.18 -0.18 0.18 l-2.3 0 c-0.1 0 -0.18 -0.08 -0.18 -0.18 l0 -10.52 z M83.74 7.9 l-6.04 0 c-0.14 0 -0.14 0.26 0 0.26 l2.96 0 l0 10.6 c0 0.14 0.26 0.14 0.26 0 l0 -10.6 l2.82 0 c0.2 0 0.18 -0.26 0 -0.26 z M99.76 6.62 c1.72 0 2.92 0.38 3.68 1.2 c0.6 0.66 0.88 1.6 0.88 2.94 l0 5.26 c0 1.38 -0.28 2.34 -0.88 2.98 c-0.78 0.8 -1.96 1.2 -3.68 1.2 c-1.78 0 -2.94 -0.4 -3.7 -1.2 c-0.58 -0.64 -0.9 -1.6 -0.9 -2.98 l0 -5.26 c0 -1.34 0.32 -2.28 0.9 -2.96 c0.78 -0.8 1.96 -1.18 3.7 -1.18 z M101.66 15.42 l0 -4 c0 -1.76 -0.94 -2.12 -1.8 -2.12 l-0.24 0 c-1.28 0 -1.78 0.82 -1.78 2.12 l0 4 c0 1.76 0.94 2.14 1.78 2.14 l0.24 0 c1.28 0 1.78 -0.86 1.8 -2.14 z M96.42 10.9 l0 4.96 c0 0.94 0.24 1.72 0.8 2.3 c0.52 0.52 1.32 0.8 2.3 0.8 l0.52 0 c1.88 0 3.1 -1.2 3.1 -3.1 l0 -4.96 c0 -2.04 -1.08 -3.14 -3.1 -3.14 l-0.52 0 c-2.04 0 -3.1 1.1 -3.1 3.14 z M100.04 18.7 l-0.52 0 c-0.94 0 -1.64 -0.24 -2.14 -0.74 s-0.76 -1.2 -0.76 -2.1 l0 -4.96 c0 -1.9 1.02 -2.9 2.9 -2.9 l0.52 0 c1.9 0 2.84 0.98 2.84 2.9 l0 4.96 c0 0.84 -0.26 1.6 -0.8 2.12 c-0.52 0.44 -1.22 0.72 -2.04 0.72 z M110.26 6.8 c0.1 0 0.18 0.08 0.18 0.18 l0 10.5 l4.32 0 c0.1 0 0.18 0.08 0.18 0.18 l0 2.16 c0 0.1 -0.08 0.18 -0.18 0.18 l-6.78 0 c-0.1 0 -0.16 -0.08 -0.16 -0.18 l0 -12.84 c0 -0.1 0.06 -0.18 0.16 -0.18 l2.28 0 z M109.02 8.02 l0 10.76 c0 0.04 0.04 0.1 0.12 0.1 l4.62 0 c0.16 0 0.16 -0.26 0 -0.26 l-4.52 0 l0 -10.6 c0 -0.14 -0.22 -0.16 -0.22 0 z M117.9 20 c-0.1 0 -0.16 -0.08 -0.16 -0.18 l0 -12.84 c0 -0.1 0.06 -0.18 0.16 -0.18 l2.28 0 c0.1 0 0.18 0.08 0.18 0.18 l0 12.84 c0 0.1 -0.08 0.18 -0.18 0.18 l-2.28 0 z M118.94 8 l0 10.78 c0 0.18 0.22 0.18 0.22 0 l0 -10.78 c0 -0.14 -0.22 -0.14 -0.22 0 z M125.74 6.92 l2.2 8.28 l2.26 -8.28 c0.04 -0.06 0.08 -0.12 0.16 -0.12 l2.28 0 c0.12 0 0.2 0.1 0.16 0.22 l-3.46 12.86 c-0.04 0.08 -0.08 0.12 -0.16 0.12 l-2.48 0 c-0.06 0 -0.12 -0.04 -0.14 -0.12 l-3.46 -12.86 c-0.02 -0.12 0.06 -0.22 0.18 -0.22 l2.3 0 c0.08 0 0.12 0.06 0.16 0.12 z M127.9 18.62 l-3.34 -10.66 c-0.06 -0.16 -0.28 -0.06 -0.22 0.06 l3.32 10.68 c0.08 0.3 0.4 0.32 0.5 0 l3.2 -10.68 c0.04 -0.12 -0.18 -0.2 -0.22 -0.06 z M135.74 20 c-0.1 0 -0.16 -0.08 -0.16 -0.18 l0 -12.84 c0 -0.1 0.06 -0.18 0.16 -0.18 l6.8 0 c0.1 0 0.18 0.08 0.18 0.18 l0 2.14 c0 0.1 -0.08 0.18 -0.18 0.18 l-4.32 0 l0 2.72 l3.36 0 c0.1 0 0.16 0.08 0.16 0.18 l0 2.18 c0 0.1 -0.06 0.18 -0.16 0.18 l-3.36 0 l0 2.94 l4.32 0 c0.1 0 0.18 0.08 0.18 0.18 l0 2.14 c0 0.1 -0.08 0.18 -0.18 0.18 l-6.8 0 z M136.74 8.06 l0 10.64 c0 0.12 0.08 0.16 0.16 0.16 l4.6 0 c0.18 0 0.14 -0.24 0 -0.24 l-4.5 0 l0 -5.22 l3.68 0 c0.12 0 0.12 -0.28 0 -0.28 l-3.68 0 l0 -4.96 l4.5 0 c0.14 0 0.18 -0.26 0 -0.26 l-4.6 0 c-0.08 0 -0.16 0.06 -0.16 0.16 z M153.6 14.78 c-0.28 0.58 -0.68 1.02 -1.24 1.28 l1.68 3.7 c0.06 0.12 -0.02 0.24 -0.14 0.24 l-2.46 0 c-0.08 0 -0.12 -0.04 -0.14 -0.1 l-1.56 -3.4 l-1.02 0 l0 3.32 c0 0.1 -0.08 0.18 -0.18 0.18 l-2.3 0 c-0.08 0 -0.14 -0.08 -0.14 -0.18 l0 -12.84 c0 -0.1 0.06 -0.18 0.14 -0.18 l4.16 0 c2.22 0 3.56 1.26 3.56 3.6 l0 2.52 c0 0.7 -0.12 1.36 -0.36 1.86 z M151.34 12.3 l0 -1.3 c0 -1.4 -0.52 -1.54 -2.04 -1.54 l-0.58 0 l0 4.42 l0.58 0 c1.26 0 2 -0.02 2.04 -1.58 z M147.56 18.78 l0 -3.42 l2.88 0 l1.68 3.46 c0.04 0.1 0.28 0.06 0.22 -0.12 l-1.68 -3.4 c1.56 -0.22 2.1 -1.04 2.1 -2.52 l0 -2.5 c0 -2.2 -2 -2.38 -2.62 -2.38 l-2.7 0 c-0.04 0 -0.12 0.06 -0.12 0.12 l0 10.76 c0 0.14 0.24 0.14 0.24 0 z M152.52 10.28 l0 2.5 c0 2.04 -1.3 2.32 -2.56 2.32 l-2.4 0 l0 -6.94 l2.58 0 c2.16 0 2.38 1.46 2.38 2.12 z"></path></g>
			</g>
		</svg>
	